<svg width="217" height="154" viewBox="0 0 217 154" fill="none" xmlns="http://www.w3.org/2000/svg">
<path d="M20.3188 148.625C22.5266 151.912 25.6273 153.777 28.8722 153.772L74.7643 153.686C78.386 153.679 81.9556 152.507 85.1844 150.264L187.473 79.3098C196.874 72.7887 205.3 63.4803 211.034 51.2885C217.471 37.6023 218.171 27.698 215.629 20.7011C213.094 13.6993 206.932 8.55738 195.151 7.50977C184.657 6.57749 174.219 10.3547 164.819 16.871L130.187 40.8941L53.3018 1.45955C52.3774 0.608283 51.3034 0.109998 50.1909 0.0162195C49.0784 -0.0775592 47.9677 0.236572 46.9738 0.926133L23.859 16.9623C20.1079 19.5621 19.2009 26.4053 22.0414 30.6726L76.9615 77.8153L40.6774 102.987L15.2424 85.4609C14.3661 84.857 13.3981 84.5432 12.4168 84.5449C11.4354 84.5466 10.4681 84.8636 9.59285 85.4706L-4.51508 95.2595C-8.18533 97.8065 -9.1521 104.448 -6.47325 108.754L20.3188 148.625Z" fill="#41A4FF"/>
</svg>
